<svg width="168" height="168" viewBox="0 0 168 168" fill="none" xmlns="http://www.w3.org/2000/svg">
<path d="M19.9994 143.497C15.3074 143.497 11.4996 147.304 11.4996 151.996C11.4996 156.688 15.3074 160.496 19.9994 160.496H147.996C152.688 160.496 156.496 156.688 156.496 151.996C156.496 147.304 152.688 143.497 147.996 143.497H19.9994Z" fill="black" stroke="black"/>
<path d="M75.498 127.997C75.498 132.689 79.3058 136.497 83.9978 136.497C88.6899 136.497 92.4976 132.689 92.4976 127.997V71.9984C92.4976 67.3064 88.6899 63.4986 83.9978 63.4986C79.3058 63.4986 75.498 67.3064 75.498 71.9984V127.997Z" fill="black" stroke="black"/>
<path d="M115.497 127.997C115.497 132.689 119.305 136.497 123.997 136.497C128.689 136.497 132.497 132.689 132.497 127.997V71.9984C132.497 67.3064 128.689 63.4986 123.997 63.4986C119.305 63.4986 115.497 67.3064 115.497 71.9984V127.997Z" fill="black" stroke="black"/>
<path d="M35.499 127.997C35.499 132.689 39.3068 136.497 43.9988 136.497C48.6909 136.497 52.4986 132.689 52.4986 127.997V71.9984C52.4986 67.3064 48.6909 63.4986 43.9988 63.4986C39.3068 63.4986 35.499 67.3064 35.499 71.9984V127.997Z" fill="black" stroke="black"/>
<path d="M85.3489 25.2245L85.3541 25.2268C87.2407 26.0398 89.4939 27.2131 92.4073 28.8814L92.4077 28.8816C98.3257 32.2633 105.744 37.0458 114.095 42.9436L114.095 42.9437C123.746 49.7514 128.103 53.1668 133.543 57.4306C137.574 60.5905 142.2 64.2162 150.015 70.034C153.332 73.331 158.701 73.3225 162.007 70.0085C165.331 66.6932 165.331 61.304 162.007 57.9887L161.989 57.9707L161.969 57.9547C144.303 43.6041 141.104 41.2054 123.903 29.0551L123.903 29.0549C115.255 22.953 107.169 17.7358 100.84 14.1178L100.84 14.1177C97.6231 12.2808 94.5746 10.7037 92.1768 9.65411C90.0813 8.73435 86.9793 7.5 84 7.5C81.0207 7.5 77.9187 8.73435 75.8232 9.65411C73.4254 10.7037 70.3769 12.2808 67.1605 14.1177L67.1603 14.1178C60.8307 17.7358 52.7451 22.953 44.0967 29.0549L44.0965 29.0551C26.8956 41.2054 23.6969 43.6041 6.03069 57.9547L6.0109 57.9707L5.99284 57.9887C2.6692 61.3039 2.66905 66.6927 5.99239 70.008C9.29892 73.3225 14.668 73.3312 17.9853 70.0339C25.8004 64.2162 30.426 60.5905 34.4571 57.4306C39.8966 53.1668 44.2538 49.7514 53.905 42.9437L53.9052 42.9436C62.2564 37.0458 69.6743 32.2633 75.5923 28.8816L75.5927 28.8814C78.5061 27.2131 80.7593 26.0398 82.6459 25.2268L82.6511 25.2245C83.2479 24.9593 83.6895 24.7853 84 24.6735C84.3105 24.7853 84.7521 24.9593 85.3489 25.2245Z" fill="black" stroke="black"/>
</svg>
